<svg width="512" height="512" viewBox="0 0 512 512" fill="none" xmlns="http://www.w3.org/2000/svg">
<mask id="path-2-inside-1" fill="white">
<path fill-rule="evenodd" clip-rule="evenodd" d="M251.349 41.8378L256 34L260.651 41.8378L363.266 214.752C365.466 217.968 367.525 221.287 369.435 224.702H369.171L461.252 379.867L466 387.867H456.697H379.698C363.124 440.516 313.918 478.697 255.795 478.697C200.899 478.697 153.958 444.638 134.951 396.498C134.675 395.799 134.405 395.098 134.141 394.393C133.335 392.244 132.585 390.068 131.892 387.867H55.3027H46L50.7476 379.867L142.829 224.702H142.565C144.475 221.286 146.535 217.965 148.736 214.748L148.737 214.747L251.349 41.8378ZM129.655 379.867C127.215 369.919 125.921 359.522 125.921 348.822C125.921 277.095 184.068 218.948 255.795 218.948C327.523 218.948 385.67 277.095 385.67 348.822C385.67 359.522 384.376 369.919 381.936 379.867H451.95L359.868 224.702L356.526 219.07C334.558 187.092 297.728 166.121 256 166.121C214.274 166.121 177.445 187.089 155.477 219.065L152.132 224.702L60.0502 379.867H129.655ZM174.659 186.741C196.92 168.836 225.208 158.121 256 158.121C286.792 158.121 315.081 168.836 337.341 186.742L256 49.6757L174.659 186.741ZM377.67 348.822C377.67 416.132 323.105 470.697 255.795 470.697C205.404 470.697 162.156 440.114 143.599 396.498C142.306 393.46 141.134 390.36 140.087 387.202L140.082 387.188C177.462 384.8 210.542 366.598 232.703 339.201C241.911 329.664 247.575 316.684 247.575 302.38C247.575 273.099 223.838 249.362 194.557 249.362C190.886 249.362 187.303 249.735 183.842 250.445C204.007 235.671 228.882 226.948 255.795 226.948C323.105 226.948 377.67 281.513 377.67 348.822ZM137.764 379.307C135.882 371.997 134.661 364.422 134.168 356.649C134.004 354.061 133.921 351.452 133.921 348.822C133.921 346.344 133.995 343.883 134.141 341.441C134.882 329.033 137.48 317.125 141.66 305.991C143.516 333.588 166.49 355.398 194.557 355.398C198.496 355.398 202.336 354.969 206.03 354.154C186.955 368.862 163.401 378.045 137.764 379.307ZM226.707 333.892C229.629 330.258 232.347 326.452 234.844 322.493C237.872 316.44 239.575 309.609 239.575 302.38C239.575 277.517 219.42 257.362 194.557 257.362C169.694 257.362 149.539 277.517 149.539 302.38C149.539 327.243 169.694 347.398 194.557 347.398C207.151 347.398 218.537 342.227 226.707 333.892Z"/>
</mask>
<path d="M256 34L262.88 29.9172L256 18.3243L249.12 29.9172L256 34ZM251.349 41.8378L244.469 37.7551L244.469 37.7551L251.349 41.8378ZM260.651 41.8378L253.772 45.9206L253.772 45.9206L260.651 41.8378ZM363.266 214.752L356.387 218.835L356.518 219.057L356.664 219.269L363.266 214.752ZM369.435 224.702V232.702H383.074L376.417 220.797L369.435 224.702ZM369.171 224.702V216.702H355.121L362.291 228.784L369.171 224.702ZM461.252 379.867L454.373 383.95L454.373 383.95L461.252 379.867ZM466 387.867V395.867H480.05L472.88 383.784L466 387.867ZM379.698 387.867V379.867H373.83L372.068 385.465L379.698 387.867ZM134.951 396.498L127.51 399.436L127.51 399.436L134.951 396.498ZM134.141 394.393L126.649 397.2L126.65 397.2L134.141 394.393ZM131.892 387.867L139.523 385.465L137.761 379.867H131.892V387.867ZM46 387.867L39.1202 383.784L31.9498 395.867H46V387.867ZM50.7476 379.867L57.6273 383.95L57.6273 383.95L50.7476 379.867ZM142.829 224.702L149.709 228.784L156.879 216.702H142.829V224.702ZM142.565 224.702L135.583 220.797L128.926 232.702H142.565V224.702ZM148.736 214.748L155.339 219.266L155.346 219.255L148.736 214.748ZM148.737 214.747L155.347 219.254L155.489 219.046L155.617 218.83L148.737 214.747ZM129.655 379.867V387.867H139.854L137.424 377.961L129.655 379.867ZM381.936 379.867L374.166 377.961L371.737 387.867H381.936V379.867ZM451.95 379.867V387.867H466L458.83 375.784L451.95 379.867ZM359.868 224.702L366.748 220.619L366.748 220.619L359.868 224.702ZM356.526 219.07L363.406 214.987L363.27 214.759L363.12 214.54L356.526 219.07ZM155.477 219.065L148.884 214.534L148.733 214.753L148.598 214.982L155.477 219.065ZM152.132 224.702L159.012 228.784L159.012 228.784L152.132 224.702ZM60.0502 379.867L53.1704 375.784L46 387.867H60.0502V379.867ZM174.659 186.741L167.78 182.659L179.674 192.975L174.659 186.741ZM337.341 186.742L332.327 192.976L344.221 182.659L337.341 186.742ZM256 49.6757L262.88 45.5929L256 34L249.12 45.593L256 49.6757ZM143.599 396.498L136.237 399.63L136.237 399.63L143.599 396.498ZM140.087 387.202L147.681 384.685L147.677 384.675L147.674 384.666L140.087 387.202ZM140.082 387.188L139.572 379.205L129.2 379.867L132.495 389.724L140.082 387.188ZM232.703 339.201L226.948 333.645L226.704 333.897L226.483 334.17L232.703 339.201ZM183.842 250.445L179.114 243.991L185.451 258.281L183.842 250.445ZM134.168 356.649L126.184 357.155L126.184 357.155L134.168 356.649ZM137.764 379.307L130.017 381.302L131.644 387.617L138.158 387.297L137.764 379.307ZM134.141 341.441L142.126 341.918L142.126 341.918L134.141 341.441ZM141.66 305.991L149.642 305.454L134.17 303.18L141.66 305.991ZM206.03 354.154L210.915 360.489L204.307 346.341L206.03 354.154ZM234.844 322.493L241.611 326.76L241.822 326.425L241.998 326.072L234.844 322.493ZM226.707 333.892L232.42 339.492L232.695 339.212L232.942 338.905L226.707 333.892ZM249.12 29.9172L244.469 37.7551L258.228 45.9206L262.88 38.0828L249.12 29.9172ZM267.531 37.7551L262.88 29.9172L249.12 38.0828L253.772 45.9206L267.531 37.7551ZM370.146 210.669L267.531 37.7551L253.772 45.9206L356.387 218.835L370.146 210.669ZM376.417 220.797C374.39 217.172 372.204 213.648 369.869 210.235L356.664 219.269C358.728 222.287 360.66 225.402 362.452 228.606L376.417 220.797ZM369.171 232.702H369.435V216.702H369.171V232.702ZM468.132 375.784L376.051 220.619L362.291 228.784L454.373 383.95L468.132 375.784ZM472.88 383.784L468.132 375.784L454.373 383.95L459.12 391.95L472.88 383.784ZM456.697 395.867H466V379.867H456.697V395.867ZM379.698 395.867H456.697V379.867H379.698V395.867ZM372.068 385.465C356.511 434.878 310.326 470.697 255.795 470.697V486.697C317.511 486.697 369.736 446.154 387.329 390.269L372.068 385.465ZM255.795 470.697C204.293 470.697 160.234 438.748 142.392 393.56L127.51 399.436C147.682 450.527 197.505 486.697 255.795 486.697V470.697ZM142.392 393.56C142.133 392.904 141.88 392.246 141.632 391.586L126.65 397.2C126.93 397.949 127.217 398.694 127.51 399.436L142.392 393.56ZM141.632 391.586C140.877 389.57 140.173 387.529 139.523 385.465L124.262 390.269C124.998 392.607 125.794 394.918 126.649 397.2L141.632 391.586ZM55.3027 395.867H131.892V379.867H55.3027V395.867ZM46 395.867H55.3027V379.867H46V395.867ZM43.8678 375.784L39.1202 383.784L52.8798 391.95L57.6273 383.95L43.8678 375.784ZM135.95 220.619L43.8678 375.784L57.6273 383.95L149.709 228.784L135.95 220.619ZM142.565 232.702H142.829V216.702H142.565V232.702ZM142.133 210.231C139.797 213.646 137.611 217.171 135.583 220.797L149.548 228.606C151.34 225.401 153.273 222.285 155.339 219.266L142.133 210.231ZM142.127 210.24L142.126 210.242L155.346 219.255L155.347 219.254L142.127 210.24ZM244.469 37.7551L141.857 210.664L155.617 218.83L258.228 45.9206L244.469 37.7551ZM137.424 377.961C135.136 368.633 133.921 358.875 133.921 348.822H117.921C117.921 360.169 119.293 371.206 121.885 381.773L137.424 377.961ZM133.921 348.822C133.921 281.513 188.486 226.948 255.795 226.948V210.948C179.649 210.948 117.921 272.676 117.921 348.822H133.921ZM255.795 226.948C323.105 226.948 377.67 281.513 377.67 348.822H393.67C393.67 272.676 331.941 210.948 255.795 210.948V226.948ZM377.67 348.822C377.67 358.875 376.454 368.633 374.166 377.961L389.706 381.773C392.297 371.206 393.67 360.169 393.67 348.822H377.67ZM451.95 371.867H381.936V387.867H451.95V371.867ZM352.988 228.784L445.07 383.95L458.83 375.784L366.748 220.619L352.988 228.784ZM349.646 223.153L352.988 228.784L366.748 220.619L363.406 214.987L349.646 223.153ZM256 174.121C294.982 174.121 329.393 193.701 349.932 223.6L363.12 214.54C339.724 180.483 300.474 158.121 256 158.121V174.121ZM162.071 223.595C182.611 193.699 217.02 174.121 256 174.121V158.121C211.528 158.121 172.28 180.48 148.884 214.534L162.071 223.595ZM159.012 228.784L162.357 223.147L148.598 214.982L145.252 220.619L159.012 228.784ZM66.93 383.95L159.012 228.784L145.252 220.619L53.1704 375.784L66.93 383.95ZM129.655 371.867H60.0502V387.867H129.655V371.867ZM256 150.121C223.319 150.121 193.275 161.501 169.645 180.508L179.674 192.975C200.564 176.171 227.097 166.121 256 166.121V150.121ZM342.356 180.509C318.725 161.501 288.681 150.121 256 150.121V166.121C284.903 166.121 311.436 176.172 332.327 192.976L342.356 180.509ZM249.12 53.7585L330.462 190.825L344.221 182.659L262.88 45.5929L249.12 53.7585ZM181.539 190.824L262.88 53.7584L249.12 45.593L167.78 182.659L181.539 190.824ZM255.795 478.697C327.523 478.697 385.67 420.55 385.67 348.822H369.67C369.67 411.713 318.687 462.697 255.795 462.697V478.697ZM136.237 399.63C156.006 446.093 202.084 478.697 255.795 478.697V462.697C208.724 462.697 168.306 434.135 150.96 393.366L136.237 399.63ZM132.493 389.72C133.61 393.086 134.86 396.392 136.237 399.63L150.96 393.366C149.753 390.529 148.658 387.633 147.681 384.685L132.493 389.72ZM132.495 389.724L132.5 389.738L147.674 384.666L147.67 384.652L132.495 389.724ZM226.483 334.17C205.674 359.896 174.634 376.964 139.572 379.205L140.592 395.172C180.29 392.635 215.41 373.301 238.923 344.233L226.483 334.17ZM239.575 302.38C239.575 314.528 234.774 325.539 226.948 333.645L238.458 344.758C249.048 333.79 255.575 318.839 255.575 302.38H239.575ZM194.557 257.362C219.42 257.362 239.575 277.517 239.575 302.38H255.575C255.575 268.68 228.257 241.362 194.557 241.362V257.362ZM185.451 258.281C188.385 257.679 191.43 257.362 194.557 257.362V241.362C190.343 241.362 186.221 241.79 182.234 242.608L185.451 258.281ZM255.795 218.948C227.126 218.948 200.604 228.247 179.114 243.991L188.57 256.898C207.41 243.096 230.639 234.948 255.795 234.948V218.948ZM385.67 348.822C385.67 277.095 327.523 218.948 255.795 218.948V234.948C318.687 234.948 369.67 285.931 369.67 348.822H385.67ZM126.184 357.155C126.709 365.435 128.01 373.508 130.017 381.302L145.512 377.311C143.754 370.486 142.613 363.41 142.152 356.143L126.184 357.155ZM125.921 348.822C125.921 351.621 126.01 354.399 126.184 357.155L142.152 356.143C141.999 353.724 141.921 351.283 141.921 348.822H125.921ZM126.155 340.964C126 343.565 125.921 346.185 125.921 348.822H141.921C141.921 346.503 141.99 344.201 142.126 341.918L126.155 340.964ZM134.17 303.18C129.713 315.052 126.945 327.746 126.155 340.964L142.126 341.918C142.819 330.32 145.246 319.199 149.149 308.803L134.17 303.18ZM194.557 347.398C170.728 347.398 151.217 328.879 149.642 305.454L133.678 306.528C135.815 338.297 162.251 363.398 194.557 363.398V347.398ZM204.307 346.341C201.174 347.032 197.913 347.398 194.557 347.398V363.398C199.08 363.398 203.497 362.905 207.753 361.966L204.307 346.341ZM138.158 387.297C165.479 385.952 190.59 376.161 210.915 360.489L201.145 347.818C183.32 361.563 161.323 370.138 137.371 371.316L138.158 387.297ZM228.076 318.226C225.744 321.926 223.204 325.482 220.472 328.879L232.942 338.905C236.055 335.033 238.951 330.979 241.611 326.76L228.076 318.226ZM231.575 302.38C231.575 308.339 230.174 313.947 227.689 318.914L241.998 326.072C245.57 318.932 247.575 310.879 247.575 302.38H231.575ZM194.557 265.362C215.002 265.362 231.575 281.935 231.575 302.38H247.575C247.575 273.099 223.838 249.362 194.557 249.362V265.362ZM157.539 302.38C157.539 281.935 174.112 265.362 194.557 265.362V249.362C165.276 249.362 141.539 273.099 141.539 302.38H157.539ZM194.557 339.398C174.112 339.398 157.539 322.825 157.539 302.38H141.539C141.539 331.661 165.276 355.398 194.557 355.398V339.398ZM220.994 328.292C214.266 335.155 204.914 339.398 194.557 339.398V355.398C209.387 355.398 222.807 349.299 232.42 339.492L220.994 328.292Z" fill="black" mask="url(#path-2-inside-1)"/>
<circle cx="378.576" cy="412.576" r="28.5765" fill="#FF1654" stroke="black" stroke-width="8"/>
</svg>
